<svg xmlns="http://www.w3.org/2000/svg" xmlns:xlink="http://www.w3.org/1999/xlink" width="500" height="500" viewBox="0 0 500 500"><g><g transform="translate(-6741 -2683)"><rect width="116.874" height="5.783" transform="translate(6991.614 2874.921) rotate(90)" fill="none" stroke="#fff" stroke-miterlimit="10" stroke-width="0.964"/><path d="M6991.614,2928.37h34.359v9.975h-34.359" fill="none" stroke="#fff" stroke-miterlimit="10" stroke-width="0.964"/><path d="M6985.831,2938.346h-31.268v-9.975h31.268" fill="none" stroke="#fff" stroke-miterlimit="10" stroke-width="0.964"/><rect width="16.418" height="8.448" transform="translate(7017.677 2911.952) rotate(90)" fill="none" stroke="#fff" stroke-miterlimit="10" stroke-width="0.964"/><rect width="7.944" height="8.448" transform="translate(7017.677 2938.346) rotate(90)" fill="none" stroke="#fff" stroke-miterlimit="10" stroke-width="0.964"/><rect width="9.002" height="48.868" transform="translate(7048.228 2874.921) rotate(90)" fill="#454545" stroke="#fff" stroke-miterlimit="10" stroke-width="0.964"/><rect width="9.002" height="48.868" transform="translate(7048.228 2890.087) rotate(90)" fill="#454545" stroke="#fff" stroke-miterlimit="10" stroke-width="0.964"/><rect width="9.002" height="48.868" transform="translate(6978.085 2874.921) rotate(90)" fill="#454545" stroke="#fff" stroke-miterlimit="10" stroke-width="0.964"/><rect width="9.002" height="48.868" transform="translate(6978.085 2890.087) rotate(90)" fill="#454545" stroke="#fff" stroke-miterlimit="10" stroke-width="0.964"/><rect width="9.002" height="48.868" transform="translate(7048.228 2967.627) rotate(90)" fill="#454545" stroke="#fff" stroke-miterlimit="10" stroke-width="0.964"/><rect width="9.002" height="48.868" transform="translate(7048.228 2982.792) rotate(90)" fill="#454545" stroke="#fff" stroke-miterlimit="10" stroke-width="0.964"/><rect width="9.002" height="48.868" transform="translate(6978.085 2967.626) rotate(90)" fill="#454545" stroke="#fff" stroke-miterlimit="10" stroke-width="0.964"/><rect width="9.002" height="48.868" transform="translate(6978.085 2982.792) rotate(90)" fill="#454545" stroke="#fff" stroke-miterlimit="10" stroke-width="0.964"/><rect width="11.761" height="11.761" transform="translate(6978.085 2910.107) rotate(90)" fill="#454545" stroke="#fff" stroke-miterlimit="10" stroke-width="0.964"/><rect width="11.761" height="11.761" transform="translate(6978.085 2944.847) rotate(90)" fill="#454545" stroke="#fff" stroke-miterlimit="10" stroke-width="0.964"/><rect width="24.168" height="48.868" transform="translate(7048.228 2874.921) rotate(90)" fill="none" stroke="#fff" stroke-miterlimit="10" stroke-width="0.964"/><rect width="24.168" height="48.868" transform="translate(7048.228 2967.626) rotate(90)" fill="none" stroke="#fff" stroke-miterlimit="10" stroke-width="0.964"/><rect width="24.168" height="48.868" transform="translate(6978.085 2874.921) rotate(90)" fill="none" stroke="#fff" stroke-miterlimit="10" stroke-width="0.964"/><rect width="24.168" height="48.868" transform="translate(6978.085 2967.626) rotate(90)" fill="none" stroke="#fff" stroke-miterlimit="10" stroke-width="0.964"/><line x1="7.746" transform="translate(6991.614 2979.711)" fill="none" stroke="#fff" stroke-miterlimit="10" stroke-width="0.964"/><line x1="7.746" transform="translate(6978.085 2979.711)" fill="none" stroke="#fff" stroke-miterlimit="10" stroke-width="0.964"/><line x1="7.746" transform="translate(6978.085 2950.728)" fill="none" stroke="#fff" stroke-miterlimit="10" stroke-width="0.964"/><line x1="7.746" transform="translate(6978.085 2915.988)" fill="none" stroke="#fff" stroke-miterlimit="10" stroke-width="0.964"/><line x1="7.746" transform="translate(6978.085 2887.005)" fill="none" stroke="#fff" stroke-miterlimit="10" stroke-width="0.964"/><line x1="7.746" transform="translate(6991.614 2887.005)" fill="none" stroke="#fff" stroke-miterlimit="10" stroke-width="0.964"/><rect width="8.209" height="5.569" transform="translate(7009.229 2911.952) rotate(90)" fill="none" stroke="#fff" stroke-miterlimit="10" stroke-width="0.964"/><line y2="4.438" transform="translate(7013.453 2946.29)" fill="none" stroke="#fff" stroke-miterlimit="10" stroke-width="0.964"/><circle cx="2.011" cy="2.011" r="2.011" transform="translate(7017.677 2931.347)" fill="#454545" stroke="#fff" stroke-miterlimit="10" stroke-width="0.964"/><circle cx="2.011" cy="2.011" r="2.011" transform="translate(6964.313 2931.347)" fill="#454545" stroke="#fff" stroke-miterlimit="10" stroke-width="0.964"/><line x2="5.531" y2="9.975" transform="translate(6996.595 2928.37)" fill="none" stroke="#fff" stroke-miterlimit="10" stroke-width="0.964"/><line y1="9.975" x2="5.531" transform="translate(6996.595 2928.37)" fill="none" stroke="#fff" stroke-miterlimit="10" stroke-width="0.964"/><rect width="14.811" height="15.972" transform="translate(7037.374 2940.76) rotate(-90)" fill="none" stroke="#fff" stroke-miterlimit="10" stroke-width="0.964"/><path d="M7044.362,2923.862l-5.054,2.087h14.037v-2.818h-5.3A9.659,9.659,0,0,0,7044.362,2923.862Z" fill="#454545" stroke="#fff" stroke-linejoin="bevel" stroke-width="0.964"/><path d="M7044.362,2942.847l-5.054-2.087h14.037v2.819h-5.3A9.661,9.661,0,0,1,7044.362,2942.847Z" fill="#454545" stroke="#fff" stroke-linejoin="bevel" stroke-width="0.964"/><ellipse cx="1.695" cy="1.056" rx="1.695" ry="1.056" transform="translate(7045.768 2927.794)" fill="#454545" stroke="#fff" stroke-linejoin="bevel" stroke-width="0.964"/><path d="M7039.308,2933.355l2.342,1.6h11.7v-3.205h-11.7Z" fill="none" stroke="#fff" stroke-linejoin="round" stroke-width="0.964"/><line x2="14.018" transform="translate(7039.308 2933.355)" fill="none" stroke="#fff" stroke-miterlimit="10" stroke-width="0.964"/><path d="M7037.812,2925.56c-2.036,0-10.033,1.563-14.344,4.226v.826a15.627,15.627,0,0,0,1.737,7.236,40.815,40.815,0,0,0,12.607,3.3Z" fill="none" stroke="#fff" stroke-miterlimit="10" stroke-width="0.964"/><path d="M7037.812,2941.145V2925.56a11.469,11.469,0,0,0-1.363.114v15.357A11.469,11.469,0,0,0,7037.812,2941.145Z" fill="#454545" stroke="#fff" stroke-linejoin="bevel" stroke-width="0.964"/><line y1="13.909" transform="translate(7032.636 2926.393)" fill="none" stroke="#fff" stroke-linejoin="bevel" stroke-width="0.964"/><line x1="9.159" y2="1.03" transform="translate(7023.477 2930.137)" fill="none" stroke="#fff" stroke-linejoin="bevel" stroke-width="0.964"/><line x1="8.369" y1="0.941" transform="translate(7024.267 2935.627)" fill="none" stroke="#fff" stroke-linejoin="bevel" stroke-width="0.964"/><path d="M7031.144,2931.666v3.373l-3.087-.437v-2.5Z" fill="#454545"/><path d="M7031.144,2931.666v3.373l-3.087-.437v-2.5Z" fill="none" stroke="#fff" stroke-linejoin="bevel" stroke-width="0.964"/><path d="M7031.144,2931.666v3.373l-3.087-.437v-2.5Z" fill="none" stroke="#fff" stroke-linejoin="bevel" stroke-width="0.964"/><path d="M7019.3,2942.411l-.755.343c1.642,1.115,3.2,1.65,4.423,1.1,1.593-.722,2.174-3.1,2.211-5.965a.025.025,0,0,0-.045-.016A15.529,15.529,0,0,1,7019.3,2942.411Z" fill="none" stroke="#fff" stroke-miterlimit="10" stroke-width="0.964"/><path d="M7022.884,2930.168v6.388a16.5,16.5,0,0,0,2.324,1.262,14.972,14.972,0,0,1-1.738-7.16v-.859C7023.282,2929.911,7023.057,2930.053,7022.884,2930.168Z" fill="none" stroke="#fff" stroke-miterlimit="10" stroke-width="0.964"/><line y1="1.663" transform="translate(7025.881 2932.523)" fill="none" stroke="#fff" stroke-linejoin="bevel" stroke-width="0.964"/><line x1="14.613" y2="11.517" transform="translate(7027.37 2910.985)" fill="none" stroke="#828f97" stroke-linecap="round" stroke-miterlimit="10" stroke-width="1.286"/><line x1="14.613" y1="11.517" transform="translate(7027.37 2944.214)" fill="none" stroke="#828f97" stroke-linecap="round" stroke-miterlimit="10" stroke-width="1.286"/></g></g></svg>