<svg xmlns="http://www.w3.org/2000/svg" xmlns:xlink="http://www.w3.org/1999/xlink" width="500" height="500" viewBox="0 0 500 500"><g><g transform="translate(-4885 -2677)"><path d="M5121.207,3009.151a47.164,47.164,0,0,0-5.436,22.5l15.887.076a47.148,47.148,0,0,0-5.22-22.549Z" fill="#454545" stroke="#fff" stroke-linejoin="bevel" stroke-width="0.964"/><rect width="19.632" height="77.688" stroke-width="0.964" fill="none" stroke="#fff" stroke-linejoin="bevel" transform="translate(5113.894 2923.215)"/><line x2="0.003" y2="42.006" transform="translate(5123.707 2923.215)" fill="#454545" stroke="#fff" stroke-linejoin="bevel" stroke-width="0.964"/><line x2="3.856" transform="translate(5121.782 2967.811)" fill="#454545" stroke="#fff" stroke-linejoin="bevel" stroke-width="0.964"/><rect width="5.23" height="8.273" stroke-width="0.964" fill="#454545" stroke="#fff" stroke-linejoin="bevel" transform="translate(5121.207 3000.903)"/><rect width="26.577" height="26.577" transform="translate(5110.428 2852.274)" fill="none" stroke="#fff" stroke-miterlimit="10" stroke-width="0.964"/><path d="M5140.563,2863.536l-3.558-8.617v23.932h4.805v-9.029A16.449,16.449,0,0,0,5140.563,2863.536Z" fill="#454545" stroke="#fff" stroke-linejoin="bevel" stroke-width="0.964"/><path d="M5106.87,2863.536l3.558-8.617v23.932h-4.805v-9.029A16.467,16.467,0,0,1,5106.87,2863.536Z" fill="#454545" stroke="#fff" stroke-linejoin="bevel" stroke-width="0.964"/><ellipse cx="1.801" cy="2.89" rx="1.801" ry="2.89" transform="translate(5129.595 2865.933)" fill="#454545" stroke="#fff" stroke-linejoin="bevel" stroke-width="0.964"/><path d="M5123.717,2854.919l-2.732,3.992v19.939h5.465v-19.939Z" fill="none" stroke="#fff" stroke-linejoin="round" stroke-width="0.964"/><line y2="23.899" transform="translate(5123.717 2854.919)" fill="none" stroke="#fff" stroke-miterlimit="10" stroke-width="0.964"/><line y2="29.865" transform="translate(5113.894 2885.591)" fill="none" stroke="#828f97" stroke-miterlimit="10" stroke-width="1.286"/><line y2="29.865" transform="translate(5133.525 2885.591)" fill="none" stroke="#828f97" stroke-miterlimit="10" stroke-width="1.286"/><path d="M5128.392,2827.914h1.41c-1.76-2.85-3.8-4.756-6.082-4.756-3,0-5.592,3.3-7.669,7.72A26.655,26.655,0,0,1,5128.392,2827.914Z" fill="none" stroke="#fff" stroke-miterlimit="10" stroke-width="0.964"/><path d="M5137,2852.369c0-3.47-2.664-17.1-7.2-24.455h-1.409a26.642,26.642,0,0,0-12.336,2.962c-3.568,7.584-5.621,18.448-5.621,21.493Z" fill="none" stroke="#fff" stroke-miterlimit="10" stroke-width="0.964"/><path d="M5110.435,2852.369H5137a19.485,19.485,0,0,0-.194-2.323h-26.182A19.485,19.485,0,0,0,5110.435,2852.369Z" fill="#454545" stroke="#fff" stroke-linejoin="bevel" stroke-width="0.964"/><ellipse cx="2.17" cy="1.382" rx="2.17" ry="1.382" transform="translate(5113.833 2840.318) rotate(-77.12)" fill="#454545" stroke="#fff" stroke-linejoin="bevel" stroke-width="0.964"/><ellipse cx="1.357" cy="2.131" rx="1.357" ry="2.131" transform="translate(5129.988 2836.736) rotate(-12.88)" fill="#454545" stroke="#fff" stroke-linejoin="bevel" stroke-width="0.964"/><line x2="23.713" transform="translate(5111.873 2843.545)" fill="none" stroke="#fff" stroke-linejoin="bevel" stroke-width="0.964"/><rect width="5.986" height="3.619" rx="0.525" stroke-width="0.964" fill="#454545" stroke="#fff" stroke-linejoin="bevel" transform="translate(5120.727 2845.069)"/><path d="M5127.025,2841.938h-6.609l.151-6.714h6.308Z" fill="#454545" stroke="#fff" stroke-linejoin="bevel" stroke-width="0.964"/><line x1="1.755" y1="15.615" transform="translate(5127.447 2827.93)" fill="none" stroke="#fff" stroke-linejoin="bevel" stroke-width="0.964"/><line y1="14.269" x2="1.604" transform="translate(5118.238 2829.276)" fill="none" stroke="#fff" stroke-linejoin="bevel" stroke-width="0.964"/><line x2="4.743" transform="translate(5121.349 2831.753)" fill="none" stroke="#fff" stroke-linejoin="bevel" stroke-width="0.964"/><ellipse cx="0.997" cy="0.973" rx="0.997" ry="0.973" transform="translate(5112.813 2846.231)" fill="#454545" stroke="#fff" stroke-linejoin="bevel" stroke-width="0.964"/><ellipse cx="0.997" cy="0.973" rx="0.997" ry="0.973" transform="translate(5132.644 2846.231)" fill="#454545" stroke="#fff" stroke-linejoin="bevel" stroke-width="0.964"/><ellipse cx="1.056" cy="1.031" rx="1.056" ry="1.031" transform="translate(5122.664 2837.55)" fill="#454545" stroke="#fff" stroke-linejoin="bevel" stroke-width="0.964"/></g></g></svg>