<svg xmlns="http://www.w3.org/2000/svg" xmlns:xlink="http://www.w3.org/1999/xlink" width="500" height="500" viewBox="0 0 500 500"><g><g transform="translate(-5802 -2679)"><circle cx="64.669" cy="64.669" r="64.669" transform="translate(5961.816 2864.48)" fill="none" opacity="0.5" stroke-linecap="round" stroke-miterlimit="10" stroke-width="1.992" stroke-dasharray="0 7.969" stroke="#fff"/><ellipse cx="145.899" cy="87.301" rx="145.899" ry="87.301" transform="translate(5861.587 2970.583) rotate(-45)" fill="none" opacity="0.5" stroke-linecap="round" stroke-miterlimit="10" stroke-width="1.992" stroke-dasharray="0 7.969" stroke="#fff"/><rect width="78.607" height="3.89" transform="translate(6028.429 2889.846) rotate(90)" fill="none" stroke="#fff" stroke-miterlimit="10" stroke-width="1.494"/><path d="M6028.429,2925.794h23.109v6.709h-23.109" fill="none" stroke="#fff" stroke-miterlimit="10" stroke-width="1.494"/><path d="M6024.54,2932.5h-21.03v-6.709h21.03" fill="none" stroke="#fff" stroke-miterlimit="10" stroke-width="1.494"/><rect width="11.042" height="5.682" transform="translate(6045.958 2914.752) rotate(90)" fill="none" stroke="#fff" stroke-miterlimit="10" stroke-width="1.494"/><rect width="5.343" height="5.682" transform="translate(6045.958 2932.504) rotate(90)" fill="none" stroke="#fff" stroke-miterlimit="10" stroke-width="1.494"/><rect width="6.055" height="32.868" transform="translate(6066.507 2889.846) rotate(90)" fill="#454545" stroke="#fff" stroke-miterlimit="10" stroke-width="1.494"/><rect width="6.055" height="32.868" transform="translate(6066.507 2900.046) rotate(90)" fill="#454545" stroke="#fff" stroke-miterlimit="10" stroke-width="1.494"/><rect width="6.055" height="32.868" transform="translate(6019.33 2889.846) rotate(90)" fill="#454545" stroke="#fff" stroke-miterlimit="10" stroke-width="1.494"/><rect width="6.055" height="32.868" transform="translate(6019.33 2900.046) rotate(90)" fill="#454545" stroke="#fff" stroke-miterlimit="10" stroke-width="1.494"/><rect width="6.055" height="32.868" transform="translate(6066.507 2952.198) rotate(90)" fill="#454545" stroke="#fff" stroke-miterlimit="10" stroke-width="1.494"/><rect width="6.055" height="32.868" transform="translate(6066.506 2962.398) rotate(90)" fill="#454545" stroke="#fff" stroke-miterlimit="10" stroke-width="1.494"/><rect width="6.055" height="32.868" transform="translate(6019.33 2952.198) rotate(90)" fill="#454545" stroke="#fff" stroke-miterlimit="10" stroke-width="1.494"/><rect width="6.055" height="32.868" transform="translate(6019.33 2962.398) rotate(90)" fill="#454545" stroke="#fff" stroke-miterlimit="10" stroke-width="1.494"/><rect width="7.91" height="7.91" transform="translate(6019.33 2913.511) rotate(90)" fill="#454545" stroke="#fff" stroke-miterlimit="10" stroke-width="1.494"/><rect width="7.91" height="7.91" transform="translate(6019.33 2936.877) rotate(90)" fill="#454545" stroke="#fff" stroke-miterlimit="10" stroke-width="1.494"/><rect width="16.255" height="32.868" transform="translate(6066.507 2889.846) rotate(90)" fill="none" stroke="#fff" stroke-miterlimit="10" stroke-width="1.494"/><rect width="16.255" height="32.868" transform="translate(6066.506 2952.198) rotate(90)" fill="none" stroke="#fff" stroke-miterlimit="10" stroke-width="1.494"/><rect width="16.255" height="32.868" transform="translate(6019.33 2889.846) rotate(90)" fill="none" stroke="#fff" stroke-miterlimit="10" stroke-width="1.494"/><rect width="16.255" height="32.868" transform="translate(6019.33 2952.198) rotate(90)" fill="none" stroke="#fff" stroke-miterlimit="10" stroke-width="1.494"/><line x1="5.21" transform="translate(6028.429 2960.325)" fill="none" stroke="#fff" stroke-miterlimit="10" stroke-width="1.494"/><line x1="5.21" transform="translate(6019.33 2960.325)" fill="none" stroke="#fff" stroke-miterlimit="10" stroke-width="1.494"/><line x1="5.21" transform="translate(6019.33 2940.832)" fill="none" stroke="#fff" stroke-miterlimit="10" stroke-width="1.494"/><line x1="5.21" transform="translate(6019.33 2917.467)" fill="none" stroke="#fff" stroke-miterlimit="10" stroke-width="1.494"/><line x1="5.21" transform="translate(6019.33 2897.973)" fill="none" stroke="#fff" stroke-miterlimit="10" stroke-width="1.494"/><line x1="5.21" transform="translate(6028.429 2897.973)" fill="none" stroke="#fff" stroke-miterlimit="10" stroke-width="1.494"/><rect width="5.521" height="3.746" transform="translate(6040.277 2914.752) rotate(90)" fill="none" stroke="#fff" stroke-miterlimit="10" stroke-width="1.494"/><line y2="2.985" transform="translate(6043.118 2937.847)" fill="none" stroke="#fff" stroke-miterlimit="10" stroke-width="1.494"/><circle cx="1.353" cy="1.353" r="1.353" transform="translate(6045.958 2927.796)" fill="#454545" stroke="#fff" stroke-miterlimit="10" stroke-width="1.494"/><circle cx="1.353" cy="1.353" r="1.353" transform="translate(6010.067 2927.796)" fill="#454545" stroke="#fff" stroke-miterlimit="10" stroke-width="1.494"/><line x2="3.72" y2="6.709" transform="translate(6031.779 2925.794)" fill="none" stroke="#fff" stroke-miterlimit="10" stroke-width="1.494"/><line y1="6.709" x2="3.72" transform="translate(6031.779 2925.794)" fill="none" stroke="#fff" stroke-miterlimit="10" stroke-width="1.494"/><rect width="20.377" height="21.974" transform="translate(6221.102 2939.338) rotate(-90)" fill="none" stroke="#fff" stroke-miterlimit="10" stroke-width="1.494"/><path d="M6230.716,2916.089l-6.953,2.872h19.313v-3.878h-7.287A13.3,13.3,0,0,0,6230.716,2916.089Z" fill="#454545" stroke="#fff" stroke-linejoin="bevel" stroke-width="1.494"/><path d="M6230.716,2942.209l-6.953-2.871h19.313v3.878h-7.287A13.284,13.284,0,0,1,6230.716,2942.209Z" fill="#454545" stroke="#fff" stroke-linejoin="bevel" stroke-width="1.494"/><ellipse cx="2.332" cy="1.453" rx="2.332" ry="1.453" transform="translate(6232.651 2921.499)" fill="#454545" stroke="#fff" stroke-linejoin="bevel" stroke-width="1.494"/><path d="M6223.763,2929.149l3.222,2.205h16.091v-4.41h-16.091Z" fill="none" stroke="#fff" stroke-linejoin="round" stroke-width="1.494"/><line x2="19.286" transform="translate(6223.763 2929.149)" fill="none" stroke="#fff" stroke-miterlimit="10" stroke-width="1.494"/><path d="M6221.705,2918.425c-2.8,0-13.805,2.151-19.736,5.814v1.137a21.509,21.509,0,0,0,2.39,9.955c6.121,2.88,14.889,4.536,17.346,4.536Z" fill="none" stroke="#fff" stroke-miterlimit="10" stroke-width="1.494"/><path d="M6221.705,2939.867v-21.442a15.578,15.578,0,0,0-1.875.157v21.129A15.743,15.743,0,0,0,6221.705,2939.867Z" fill="#454545" stroke="#fff" stroke-linejoin="bevel" stroke-width="1.494"/><line y1="19.137" transform="translate(6214.583 2919.571)" fill="none" stroke="#fff" stroke-linejoin="bevel" stroke-width="1.494"/><line x1="12.601" y2="1.417" transform="translate(6201.982 2924.722)" fill="none" stroke="#fff" stroke-linejoin="bevel" stroke-width="1.494"/><line x1="11.515" y1="1.295" transform="translate(6203.069 2932.276)" fill="none" stroke="#fff" stroke-linejoin="bevel" stroke-width="1.494"/><path d="M6212.531,2926.826v4.64l-4.248-.6v-3.437Z" fill="#454545"/><path d="M6212.531,2926.826v4.64l-4.248-.6v-3.437Z" fill="none" stroke="#fff" stroke-linejoin="bevel" stroke-width="1.494"/><path d="M6212.531,2926.826v4.64l-4.248-.6v-3.437Z" fill="none" stroke="#fff" stroke-linejoin="bevel" stroke-width="1.494"/><path d="M6196.231,2941.61l-1.039.471c2.259,1.533,4.407,2.269,6.086,1.508,2.192-.994,2.99-4.271,3.042-8.206a.035.035,0,0,0-.063-.022A21.39,21.39,0,0,1,6196.231,2941.61Z" fill="none" stroke="#fff" stroke-miterlimit="10" stroke-width="1.494"/><path d="M6201.166,2924.766v8.788a22.7,22.7,0,0,0,3.2,1.735,20.594,20.594,0,0,1-2.391-9.85v-1.181C6201.714,2924.411,6201.4,2924.607,6201.166,2924.766Z" fill="none" stroke="#fff" stroke-miterlimit="10" stroke-width="1.494"/><line y1="2.288" transform="translate(6205.29 2928.005)" fill="none" stroke="#fff" stroke-linejoin="bevel" stroke-width="1.494"/><line x1="124.85" transform="translate(6069.412 2929.149)" fill="none" stroke="#828f97" stroke-miterlimit="10" stroke-width="1.992"/></g></g></svg>