<svg xmlns="http://www.w3.org/2000/svg" xmlns:xlink="http://www.w3.org/1999/xlink" width="500" height="500" viewBox="0 0 500 500"><g><g transform="translate(-5376.359 -2705.04)"><g transform="translate(5550.854 2918.927)"><g transform="translate(0 58.11)"><rect width="61.553" height="66.742" transform="translate(11.713)" fill="none" stroke="#fff" stroke-miterlimit="10" stroke-width="0.964"/><path d="M5626.69,2966.493l-8.673-21.121v58.659h11.712V2981.9A40.568,40.568,0,0,0,5626.69,2966.493Z" transform="translate(-5544.75 -2937.29)" fill="#454545" stroke="#fff" stroke-linejoin="bevel" stroke-width="0.964"/><path d="M5561.893,2966.493l8.675-21.121v58.659h-11.714V2981.9A40.568,40.568,0,0,1,5561.893,2966.493Z" transform="translate(-5558.854 -2937.29)" fill="#454545" stroke="#fff" stroke-linejoin="bevel" stroke-width="0.964"/><ellipse cx="4.39" cy="7.083" rx="4.39" ry="7.083" transform="translate(56.819 35.078)" fill="#454545" stroke="#fff" stroke-linejoin="bevel" stroke-width="0.964"/><path d="M5594.446,2945.372l-6.66,9.786v48.873h13.321v-48.873Z" transform="translate(-5551.957 -2937.289)" fill="none" stroke="#fff" stroke-linejoin="round" stroke-width="0.964"/><line y2="58.579" transform="translate(42.49 8.083)" fill="none" stroke="#fff" stroke-miterlimit="10" stroke-width="0.964"/></g><g transform="translate(10.114)"><path d="M5631.79,2951.863c0-8.507-6.5-41.927-17.562-59.941h-3.433a64.676,64.676,0,0,0-30.072,7.258c-8.7,18.59-13.7,45.22-13.7,52.683Z" transform="translate(-5567.021 -2891.922)" fill="none" stroke="#fff" stroke-miterlimit="10" stroke-width="0.964"/><path d="M5567.021,2941.42h64.769a47.7,47.7,0,0,0-.473-5.694h-63.823A47.682,47.682,0,0,0,5567.021,2941.42Z" transform="translate(-5567.021 -2881.479)" fill="#454545" stroke="#fff" stroke-linejoin="bevel" stroke-width="0.964"/><ellipse cx="5.318" cy="3.37" rx="5.318" ry="3.37" transform="matrix(0.22, -0.975, 0.975, 0.22, 8.289, 30.418)" fill="#454545" stroke="#fff" stroke-linejoin="bevel" stroke-width="0.964"/><ellipse cx="3.308" cy="5.221" rx="3.308" ry="5.221" transform="matrix(0.975, -0.22, 0.22, 0.975, 47.669, 21.608)" fill="#454545" stroke="#fff" stroke-linejoin="bevel" stroke-width="0.964"/><line x2="57.806" transform="translate(3.504 38.313)" fill="none" stroke="#fff" stroke-linejoin="bevel" stroke-width="0.964"/><rect width="14.593" height="8.872" rx="1.576" stroke-width="0.964" fill="#454545" stroke="#fff" stroke-linejoin="bevel" transform="translate(25.088 42.047)"/><path d="M5602.778,2922.847h-16.112l.368-16.457h15.376Z" transform="translate(-5562.337 -2888.473)" fill="#454545" stroke="#fff" stroke-linejoin="bevel" stroke-width="0.964"/><line x1="4.279" y1="38.274" transform="translate(41.469 0.039)" fill="none" stroke="#fff" stroke-linejoin="bevel" stroke-width="0.964"/><line y1="34.974" x2="3.91" transform="translate(19.021 3.338)" fill="none" stroke="#fff" stroke-linejoin="bevel" stroke-width="0.964"/><line x2="11.562" transform="translate(26.604 9.408)" fill="none" stroke="#fff" stroke-linejoin="bevel" stroke-width="0.964"/><ellipse cx="2.43" cy="2.386" rx="2.43" ry="2.386" transform="translate(5.795 44.896)" fill="#454545" stroke="#fff" stroke-linejoin="bevel" stroke-width="0.964"/><ellipse cx="2.43" cy="2.386" rx="2.43" ry="2.386" transform="translate(54.138 44.896)" fill="#454545" stroke="#fff" stroke-linejoin="bevel" stroke-width="0.964"/><ellipse cx="2.574" cy="2.527" rx="2.574" ry="2.527" transform="translate(29.81 23.618)" fill="#454545" stroke="#fff" stroke-linejoin="bevel" stroke-width="0.964"/></g></g><g transform="translate(5555.484 2866.954)"><path d="M5574.4,2873.964V2870.5c-7.08,4.326-11.812,9.346-11.812,14.946,0,7.311,8.064,13.633,18.89,18.715a.105.105,0,0,0,.138-.145A64.962,64.962,0,0,1,5574.4,2873.964Z" transform="translate(-5562.593 -2845.055)" fill="none" stroke="#fff" stroke-miterlimit="10" stroke-width="0.964"/><g transform="translate(19.173 49.523)"><path d="M5610.049,2889.943h-26.7a68.927,68.927,0,0,0-5.274,9.715,62.573,62.573,0,0,1,29.927-7.264h3.59C5611.126,2891.61,5610.532,2890.666,5610.049,2889.943Z" transform="translate(-5578.075 -2889.943)" fill="none" stroke="#fff" stroke-miterlimit="10" stroke-width="0.964"/></g><g transform="translate(25.85 48.137)"><path d="M5598.1,2890.693a1.749,1.749,0,1,1-3.5,0v-1.869h3.5Z" transform="translate(-5580.812 -2888.824)" fill="#454545" stroke="#fff" stroke-linejoin="bevel" stroke-width="0.964"/><path d="M5586.964,2890.693a1.749,1.749,0,1,1-3.5,0v-1.869h3.5Z" transform="translate(-5583.467 -2888.824)" fill="#454545" stroke="#fff" stroke-linejoin="bevel" stroke-width="0.964"/></g><g transform="translate(19.582)"><line y1="35.397" fill="none" stroke="#828f97" stroke-miterlimit="10" stroke-width="1.286"/><line y1="35.397" transform="translate(36.377)" fill="none" stroke="#828f97" stroke-miterlimit="10" stroke-width="1.286"/></g><g transform="translate(39.016 26.021)"><path d="M5598.848,2888.565c0-1.33-2.375-17.6-2.375-17.6s-2.375,16.27-2.375,17.6a2.375,2.375,0,1,0,4.75,0Z" transform="translate(-5594.098 -2870.965)" fill="#fff" opacity="0.5"/><path d="M5597.469,2888.5c0-.682-1.218-12.356-1.218-12.356s-1.218,11.673-1.218,12.356a1.218,1.218,0,1,0,2.437,0Z" transform="translate(-5593.875 -2869.729)" fill="#fff" opacity="0.35"/></g><g transform="translate(32.119 26.021)"><path d="M5593.281,2888.565c0-1.33-2.375-17.6-2.375-17.6s-2.377,16.27-2.377,17.6a2.376,2.376,0,1,0,4.752,0Z" transform="translate(-5588.528 -2870.965)" fill="#fff" opacity="0.5"/><path d="M5591.9,2888.5c0-.682-1.217-12.356-1.217-12.356s-1.219,11.673-1.219,12.356a1.218,1.218,0,1,0,2.436,0Z" transform="translate(-5588.306 -2869.729)" fill="#fff" opacity="0.35"/></g><g transform="translate(46.356 29.758)"><path d="M5603.889,2888.3c0-1.081-1.932-14.312-1.932-14.312s-1.932,13.231-1.932,14.313a1.932,1.932,0,1,0,3.864,0Z" transform="translate(-5600.024 -2873.983)" fill="#fff" opacity="0.5"/><path d="M5602.766,2888.244c0-.555-.99-10.047-.99-10.047s-.991,9.492-.991,10.047a.991.991,0,1,0,1.981,0Z" transform="translate(-5599.843 -2872.978)" fill="#fff" opacity="0.35"/></g><g transform="translate(25.667 29.758)"><path d="M5587.183,2888.3c0-1.081-1.932-14.312-1.932-14.312s-1.932,13.231-1.932,14.313a1.932,1.932,0,1,0,3.864,0Z" transform="translate(-5583.319 -2873.983)" fill="#fff" opacity="0.5"/><path d="M5586.061,2888.244c0-.555-.991-10.047-.991-10.047s-.99,9.492-.99,10.047a.991.991,0,1,0,1.981,0Z" transform="translate(-5583.138 -2872.978)" fill="#fff" opacity="0.35"/></g><rect width="3.498" height="1.386" stroke-width="0.964" fill="#454545" stroke="#fff" stroke-linejoin="bevel" transform="translate(32.746 48.137)"/><rect width="3.498" height="1.386" stroke-width="0.964" fill="#454545" stroke="#fff" stroke-linejoin="bevel" transform="translate(46.538 48.137)"/></g></g></g></svg>