<svg xmlns="http://www.w3.org/2000/svg" xmlns:xlink="http://www.w3.org/1999/xlink" width="500" height="500" viewBox="0 0 500 500"><g><g transform="translate(-6290 -2683)"><rect width="122.081" height="6.041" transform="translate(6531.165 2872.317) rotate(90)" fill="none" stroke="#fff" stroke-miterlimit="10" stroke-width="0.964"/><path d="M6531.165,2928.148h35.89v10.42h-35.89" fill="none" stroke="#fff" stroke-miterlimit="10" stroke-width="0.964"/><path d="M6525.124,2938.568h-32.661v-10.42h32.661" fill="none" stroke="#fff" stroke-miterlimit="10" stroke-width="0.964"/><rect width="17.15" height="8.824" transform="translate(6558.388 2910.998) rotate(90)" fill="none" stroke="#fff" stroke-miterlimit="10" stroke-width="0.964"/><rect width="8.298" height="8.824" transform="translate(6558.388 2938.568) rotate(90)" fill="none" stroke="#fff" stroke-miterlimit="10" stroke-width="0.964"/><rect width="9.403" height="51.045" transform="translate(6590.301 2872.317) rotate(90)" fill="#454545" stroke="#fff" stroke-miterlimit="10" stroke-width="0.964"/><rect width="9.403" height="51.045" transform="translate(6590.301 2888.159) rotate(90)" fill="#454545" stroke="#fff" stroke-miterlimit="10" stroke-width="0.964"/><rect width="9.403" height="51.045" transform="translate(6517.033 2872.317) rotate(90)" fill="#454545" stroke="#fff" stroke-miterlimit="10" stroke-width="0.964"/><rect width="9.403" height="51.045" transform="translate(6517.033 2888.159) rotate(90)" fill="#454545" stroke="#fff" stroke-miterlimit="10" stroke-width="0.964"/><rect width="9.403" height="51.045" transform="translate(6590.301 2969.154) rotate(90)" fill="#454545" stroke="#fff" stroke-miterlimit="10" stroke-width="0.964"/><rect width="9.403" height="51.045" transform="translate(6590.301 2984.995) rotate(90)" fill="#454545" stroke="#fff" stroke-miterlimit="10" stroke-width="0.964"/><rect width="9.403" height="51.045" transform="translate(6517.033 2969.154) rotate(90)" fill="#454545" stroke="#fff" stroke-miterlimit="10" stroke-width="0.964"/><rect width="9.403" height="51.045" transform="translate(6517.033 2984.995) rotate(90)" fill="#454545" stroke="#fff" stroke-miterlimit="10" stroke-width="0.964"/><rect width="12.285" height="12.285" transform="translate(6517.033 2909.072) rotate(90)" fill="#454545" stroke="#fff" stroke-miterlimit="10" stroke-width="0.964"/><rect width="12.285" height="12.285" transform="translate(6517.033 2945.359) rotate(90)" fill="#454545" stroke="#fff" stroke-miterlimit="10" stroke-width="0.964"/><rect width="25.245" height="51.045" transform="translate(6590.301 2872.317) rotate(90)" fill="none" stroke="#fff" stroke-miterlimit="10" stroke-width="0.964"/><rect width="25.245" height="51.045" transform="translate(6590.301 2969.154) rotate(90)" fill="none" stroke="#fff" stroke-miterlimit="10" stroke-width="0.964"/><rect width="25.245" height="51.045" transform="translate(6517.033 2872.317) rotate(90)" fill="none" stroke="#fff" stroke-miterlimit="10" stroke-width="0.964"/><rect width="25.245" height="51.045" transform="translate(6517.033 2969.154) rotate(90)" fill="none" stroke="#fff" stroke-miterlimit="10" stroke-width="0.964"/><line x1="8.091" transform="translate(6531.165 2981.776)" fill="none" stroke="#fff" stroke-miterlimit="10" stroke-width="0.964"/><line x1="8.091" transform="translate(6517.033 2981.776)" fill="none" stroke="#fff" stroke-miterlimit="10" stroke-width="0.964"/><line x1="8.091" transform="translate(6517.033 2951.502)" fill="none" stroke="#fff" stroke-miterlimit="10" stroke-width="0.964"/><line x1="8.091" transform="translate(6517.033 2915.214)" fill="none" stroke="#fff" stroke-miterlimit="10" stroke-width="0.964"/><line x1="8.091" transform="translate(6517.033 2884.94)" fill="none" stroke="#fff" stroke-miterlimit="10" stroke-width="0.964"/><line x1="8.091" transform="translate(6531.165 2884.94)" fill="none" stroke="#fff" stroke-miterlimit="10" stroke-width="0.964"/><rect width="8.575" height="5.817" transform="translate(6549.564 2910.998) rotate(90)" fill="none" stroke="#fff" stroke-miterlimit="10" stroke-width="0.964"/><line y2="4.636" transform="translate(6553.976 2946.866)" fill="none" stroke="#fff" stroke-miterlimit="10" stroke-width="0.964"/><circle cx="2.101" cy="2.101" r="2.101" transform="translate(6558.388 2931.257)" fill="#454545" stroke="#fff" stroke-miterlimit="10" stroke-width="0.964"/><circle cx="2.101" cy="2.101" r="2.101" transform="translate(6502.647 2931.257)" fill="#454545" stroke="#fff" stroke-miterlimit="10" stroke-width="0.964"/><line x2="5.777" y2="10.42" transform="translate(6536.367 2928.148)" fill="none" stroke="#fff" stroke-miterlimit="10" stroke-width="0.964"/><line y1="10.42" x2="5.777" transform="translate(6536.367 2928.148)" fill="none" stroke="#fff" stroke-miterlimit="10" stroke-width="0.964"/><rect width="16.51" height="17.804" transform="translate(6702.36 2941.61) rotate(-90)" fill="none" stroke="#fff" stroke-miterlimit="10" stroke-width="0.964"/><path d="M6710.151,2922.773l-5.634,2.327h15.647v-3.142h-5.9A10.776,10.776,0,0,0,6710.151,2922.773Z" fill="#454545" stroke="#fff" stroke-linejoin="bevel" stroke-width="0.964"/><path d="M6710.151,2943.936l-5.634-2.326h15.647v3.141h-5.9A10.772,10.772,0,0,1,6710.151,2943.936Z" fill="#454545" stroke="#fff" stroke-linejoin="bevel" stroke-width="0.964"/><ellipse cx="1.889" cy="1.177" rx="1.889" ry="1.177" transform="translate(6711.718 2927.156)" fill="#454545" stroke="#fff" stroke-linejoin="bevel" stroke-width="0.964"/><path d="M6704.517,2933.354l2.61,1.787h13.037v-3.573h-13.037Z" fill="none" stroke="#fff" stroke-linejoin="round" stroke-width="0.964"/><line x2="15.626" transform="translate(6704.517 2933.354)" fill="none" stroke="#fff" stroke-miterlimit="10" stroke-width="0.964"/><path d="M6702.849,2924.666c-2.269,0-11.184,1.742-15.99,4.711v.921a17.423,17.423,0,0,0,1.937,8.066,45.5,45.5,0,0,0,14.053,3.675Z" fill="none" stroke="#fff" stroke-miterlimit="10" stroke-width="0.964"/><path d="M6702.849,2942.039v-17.373a12.683,12.683,0,0,0-1.519.127v17.119A12.683,12.683,0,0,0,6702.849,2942.039Z" fill="#454545" stroke="#fff" stroke-linejoin="bevel" stroke-width="0.964"/><line y1="15.505" transform="translate(6697.08 2925.594)" fill="none" stroke="#fff" stroke-linejoin="bevel" stroke-width="0.964"/><line x1="10.21" y2="1.148" transform="translate(6686.87 2929.768)" fill="none" stroke="#fff" stroke-linejoin="bevel" stroke-width="0.964"/><line x1="9.33" y1="1.049" transform="translate(6687.75 2935.888)" fill="none" stroke="#fff" stroke-linejoin="bevel" stroke-width="0.964"/><path d="M6695.417,2931.473v3.759l-3.442-.487v-2.785Z" fill="#454545"/><path d="M6695.417,2931.473v3.759l-3.442-.487v-2.785Z" fill="none" stroke="#fff" stroke-linejoin="bevel" stroke-width="0.964"/><path d="M6695.417,2931.473v3.759l-3.442-.487v-2.785Z" fill="none" stroke="#fff" stroke-linejoin="bevel" stroke-width="0.964"/><path d="M6682.21,2943.45l-.842.382c1.831,1.243,3.571,1.839,4.931,1.222,1.776-.8,2.423-3.46,2.464-6.649a.028.028,0,0,0-.05-.018A17.314,17.314,0,0,1,6682.21,2943.45Z" fill="none" stroke="#fff" stroke-miterlimit="10" stroke-width="0.964"/><path d="M6686.208,2929.8v7.12a18.443,18.443,0,0,0,2.591,1.407,16.694,16.694,0,0,1-1.938-7.981v-.958C6686.653,2929.516,6686.4,2929.674,6686.208,2929.8Z" fill="none" stroke="#fff" stroke-miterlimit="10" stroke-width="0.964"/><line y1="1.854" transform="translate(6689.549 2932.428)" fill="none" stroke="#fff" stroke-linejoin="bevel" stroke-width="0.964"/><path d="M6636,2895.242a63.909,63.909,0,0,0-.007,76.221" fill="none" stroke="#fff" stroke-linejoin="bevel" stroke-width="0.964"/><path d="M6648.81,2904.769a47.932,47.932,0,0,0-.008,57.166" fill="none" stroke="#fff" stroke-linejoin="bevel" stroke-width="0.964"/><path d="M6661.616,2914.3a31.952,31.952,0,0,0-.008,38.111" fill="none" stroke="#fff" stroke-linejoin="bevel" stroke-width="0.964"/><path d="M6674.436,2923.835a15.889,15.889,0,0,0-.008,19.035" fill="none" stroke="#fff" stroke-linejoin="bevel" stroke-width="0.964"/><line x1="45.914" transform="translate(6571.196 2933.358)" stroke-dasharray="0 5.144" stroke="#828f97" stroke-linecap="round" stroke-miterlimit="10" stroke-width="1.286" fill="none"/></g></g></svg>